<?xml version="1.0" encoding="UTF-8" standalone="no"?>
<!DOCTYPE svg PUBLIC "-//W3C//DTD SVG 1.1//EN" "http://www.w3.org/Graphics/SVG/1.1/DTD/svg11.dtd">
<svg version="1.1" xmlns="http://www.w3.org/2000/svg" xmlns:xlink="http://www.w3.org/1999/xlink" preserveAspectRatio="xMidYMid meet" viewBox="0 0 408 461" width="408" height="461"><defs><path d="M326.82 248.83C326.82 234.09 326.82 225.89 326.82 224.26C356 219.14 378.02 194.05 378.02 163.84C378.02 133.63 356 108.03 326.82 103.42C326.82 94.11 326.82 19.56 326.82 10.24C326.82 4.61 322.21 0 316.58 0C292 0 95.39 0 70.82 0C65.18 0 60.58 4.61 60.58 10.24C60.58 38.91 60.58 182.27 60.58 440.32C29.86 440.32 12.79 440.32 9.38 440.32C3.74 440.32 -0.86 444.93 -0.86 450.56C-0.86 456.19 3.74 460.8 9.38 460.8C21.66 460.8 119.97 460.8 132.26 460.8C137.89 460.8 142.5 456.19 142.5 450.56C142.5 444.93 137.89 440.32 132.26 440.32C128.84 440.32 111.78 440.32 81.06 440.32L81.06 116.74L177.31 20.48L306.34 20.48C306.34 70.25 306.34 97.89 306.34 103.42C277.15 108.54 255.14 133.63 255.14 163.84C255.14 194.05 277.15 219.65 306.34 224.26C306.34 225.89 306.34 234.09 306.34 248.83C261.18 265.73 236.09 275.11 231.07 276.99C225.95 279.04 222.88 284.67 224.93 290.3C226.46 294.4 230.56 296.96 234.66 296.96C235.68 296.96 237.22 296.96 238.24 296.45C242.78 294.74 265.48 286.21 306.34 270.85L306.34 354.82C277.15 389.84 260.94 409.29 257.7 413.18C254.11 417.28 254.62 423.94 259.23 427.52C261.28 429.06 263.33 430.08 265.89 430.08C268.96 430.08 271.52 429.06 273.57 426.5C276.43 423.01 290.77 405.61 316.58 374.27C342.69 405.61 357.19 423.01 360.1 426.5C362.14 429.06 365.22 430.08 367.78 430.08C370.34 430.08 372.38 429.06 374.43 427.52C378.53 423.94 379.55 417.28 375.97 413.18C372.69 409.29 356.31 389.84 326.82 354.82L326.82 270.85C367.67 286.21 390.37 294.74 394.91 296.45C395.94 296.96 397.47 296.96 398.5 296.96C402.59 296.96 406.69 294.4 408.22 290.3C410.27 285.18 407.2 279.04 402.08 276.99C392.04 273.24 366.96 263.85 326.82 248.83ZM81.06 20.48L148.64 20.48L81.06 88.06L81.06 20.48ZM316.58 122.88C339.1 122.88 357.54 141.31 357.54 163.84C357.54 186.37 339.1 204.8 316.58 204.8C294.05 204.8 275.62 186.37 275.62 163.84C275.62 141.31 294.05 122.88 316.58 122.88Z" id="b42w3STEd"></path><path d="M304.37 389.14L335.98 349.75L407.48 407.12L375.86 446.51L304.37 389.14Z" id="a8lbsjGEj"></path><path d="M326.93 327.71L340.1 327.79L339.83 374.54L326.67 374.47L326.93 327.71Z" id="b1nIii2gCT"></path><path d="M238.36 351.13L370.38 351.13L370.38 434.13L238.36 434.13L238.36 351.13Z" id="d5FmhuPI7R"></path><path d="M326.67 232.2C326.67 237.34 322.08 241.51 316.43 241.51C310.79 241.51 306.2 237.34 306.2 232.2C306.2 227.06 310.79 222.89 316.43 222.89C322.08 222.89 326.67 227.06 326.67 232.2Z" id="b9WpL2Ait"></path><path d="M304.18 271.51L328.69 271.51L328.69 418.51L304.18 418.51L304.18 271.51Z" id="aNjcLBYIf"></path><path d="M327.06 270.42C327.06 273.58 322.36 276.16 316.56 276.16C310.77 276.16 306.06 273.58 306.06 270.42C306.06 267.25 310.77 264.68 316.56 264.68C322.36 264.68 327.06 267.25 327.06 270.42Z" id="b2SNxFhsMQ"></path><path d="M326.82 245.36L411.92 245.36L411.92 319.84L326.82 319.84L326.82 245.36Z" id="a281th2gvx"></path><path d="M217.74 240.19L306.35 240.19L306.35 305.04L217.74 305.04L217.74 240.19Z" id="a3fe2bXnwk"></path><path d="M291.83 222.89L338.6 222.89L338.6 283.9L291.83 283.9L291.83 222.89Z" id="aevvMOvaa"></path><path d="M334.95 220.08C334.95 223.25 326.65 225.82 316.43 225.82C306.21 225.82 297.91 223.25 297.91 220.08C297.91 216.92 306.21 214.34 316.43 214.34C326.65 214.34 334.95 216.92 334.95 220.08Z" id="b3C9IMhc8U"></path><path d="M241.79 100.94L390.65 100.94L390.65 236.15L241.79 236.15L241.79 100.94Z" id="a10aNJPy2T"></path><path d="M326.81 100.94C326.81 103.54 322.23 105.66 316.58 105.66C310.93 105.66 306.35 103.54 306.35 100.94C306.35 98.33 310.93 96.21 316.58 96.21C322.23 96.21 326.81 98.33 326.81 100.94Z" id="a2lWcQvLO3"></path></defs><g><g><g><use xlink:href="#b42w3STEd" opacity="1" fill="#333333" fill-opacity="1"></use><g><use xlink:href="#b42w3STEd" opacity="1" fill-opacity="0" stroke="#000000" stroke-width="1" stroke-opacity="0"></use></g></g><g><use xlink:href="#a8lbsjGEj" opacity="1" fill="#ffffff" fill-opacity="1"></use></g><g><use xlink:href="#b1nIii2gCT" opacity="1" fill="#ffffff" fill-opacity="1"></use></g><g><use xlink:href="#d5FmhuPI7R" opacity="1" fill="#ffffff" fill-opacity="1"></use></g><g><use xlink:href="#b9WpL2Ait" opacity="1" fill="#333333" fill-opacity="1"></use></g><g><use xlink:href="#aNjcLBYIf" opacity="1" fill="#ffffff" fill-opacity="1"></use></g><g><use xlink:href="#b2SNxFhsMQ" opacity="1" fill="#333333" fill-opacity="1"></use></g><g><use xlink:href="#a281th2gvx" opacity="1" fill="#ffffff" fill-opacity="1"></use></g><g><use xlink:href="#a3fe2bXnwk" opacity="1" fill="#ffffff" fill-opacity="1"></use></g><g><use xlink:href="#aevvMOvaa" opacity="1" fill="#ffffff" fill-opacity="1"></use></g><g><use xlink:href="#b3C9IMhc8U" opacity="1" fill="#333333" fill-opacity="1"></use></g><g><use xlink:href="#a10aNJPy2T" opacity="1" fill="#ffffff" fill-opacity="1"></use></g><g><use xlink:href="#a2lWcQvLO3" opacity="1" fill="#333333" fill-opacity="1.00"></use></g></g></g></svg>